<svg width="48" height="48" viewBox="0 0 48 48" fill="none" xmlns="http://www.w3.org/2000/svg">
<mask id="mask0_407_256" style="mask-type:alpha" maskUnits="userSpaceOnUse" x="2" y="2" width="44" height="44">
<circle cx="24" cy="24" r="22" fill="#C4C4C4"/>
</mask>
<g mask="url(#mask0_407_256)">
<path d="M24 46C36.1503 46 46 36.1503 46 24C46 11.8497 36.1503 2 24 2C11.8497 2 2 11.8497 2 24C2 36.1503 11.8497 46 24 46Z" fill="#EA1717"/>
<mask id="mask1_407_256" style="mask-type:alpha" maskUnits="userSpaceOnUse" x="10" y="11" width="28" height="37">
<path d="M12.3709 12.7221L10.73 41.3712C10.7108 41.707 10.8617 42.03 11.1315 42.2308L16.3948 46.1462C16.5267 46.2443 16.6808 46.3084 16.8433 46.3328L27.8338 47.9813C28.0089 48.0076 28.1878 47.9869 28.3523 47.9213L37.3673 44.3284C37.7612 44.1714 38.0132 43.7831 37.9962 43.3594L36.9616 17.5631C36.9515 17.3119 36.8473 17.0738 36.6695 16.8961L31.8457 12.0722C31.6581 11.8847 31.4038 11.7793 31.1386 11.7793H13.3693C12.8392 11.7793 12.4012 12.1929 12.3709 12.7221Z" fill="#C4C4C4"/>
</mask>
<g mask="url(#mask1_407_256)">
<path d="M37.8865 53.8537L10.0557 54.2501L12.4124 11.8252H31.6095L36.9407 17.1575L37.8865 53.8537Z" fill="white"/>
<path d="M12.3815 10.3432L38.2135 50.2621L7.60791 52.2561L12.4966 9.33301L12.3815 10.3432Z" fill="#FFEFEF"/>
<path d="M32.8369 19.2715H15.1729V21.7511H32.8369V19.2715Z" fill="#EA1717"/>
<path d="M32.6841 25.4746H21.8462V27.9542H32.6841V25.4746Z" fill="#EA1717"/>
<path d="M32.6841 31.6777H21.8462V34.1573H32.6841V31.6777Z" fill="#EA1717"/>
<path d="M15.3252 32.0502L17.2167 33.838L20.1533 30.6055" stroke="#EA1717" stroke-width="2.73" stroke-miterlimit="10"/>
<path d="M15.3252 25.6459L17.2167 27.4337L20.1533 24.2012" stroke="#EA1717" stroke-width="2.73" stroke-miterlimit="10"/>
<path d="M31.6088 11.8252L31.3037 17.3051L36.94 17.1575L31.6088 11.8252Z" fill="#FBD1D1"/>
</g>
</g>
</svg>
