<svg width="48" height="48" viewBox="0 0 48 48" fill="none" xmlns="http://www.w3.org/2000/svg">
<mask id="mask0_90_105" style="mask-type:alpha" maskUnits="userSpaceOnUse" x="2" y="2" width="44" height="44">
<path d="M24 46C36.1503 46 46 36.1503 46 24C46 11.8497 36.1503 2 24 2C11.8497 2 2 11.8497 2 24C2 36.1503 11.8497 46 24 46Z" fill="#D42C25"/>
</mask>
<g mask="url(#mask0_90_105)">
<path d="M24 46C36.1503 46 46 36.1503 46 24C46 11.8497 36.1503 2 24 2C11.8497 2 2 11.8497 2 24C2 36.1503 11.8497 46 24 46Z" fill="#EA1717"/>
<path d="M39.767 14.0917L39.2624 18.7674C39.2446 18.9623 39.1573 19.152 39.0162 19.3027C38.875 19.4535 38.6891 19.5555 38.4916 19.5906C37.2371 19.7923 36.0491 20.4207 35.1392 21.3637C34.2292 22.3067 33.6565 23.503 33.523 24.7395C33.3896 25.976 33.7041 27.1723 34.4105 28.1153C35.1168 29.0583 36.1693 29.6867 37.3801 29.8884C37.5701 29.9235 37.734 30.0255 37.8426 30.1762C37.9512 30.327 37.9975 30.5167 37.9733 30.7116L37.4677 35.3955C37.4442 35.6138 37.334 35.8232 37.1613 35.9776C36.9887 36.1319 36.7677 36.2187 36.5471 36.2187H-2.97795L-0.500977 13.2686H39.0241C39.2447 13.2686 39.4469 13.3553 39.5863 13.5097C39.7256 13.664 39.7906 13.8734 39.767 14.0917Z" fill="white"/>
<path d="M36.6142 35.7492L-0.503906 13.293L-2.97732 36.2101H36.448C36.5024 36.2085 36.5568 36.1893 36.6027 36.1556C36.6486 36.1218 36.6836 36.0754 36.7024 36.0232C36.7212 35.9711 36.7227 35.9161 36.7068 35.8666C36.6909 35.8172 36.6584 35.7759 36.6142 35.7492V35.7492Z" fill="#FFEFEF"/>
<path d="M30.0111 16.6019L30.3718 13.2598H27.6296L27.2689 16.6019H30.0111Z" fill="#EA1717"/>
<path d="M29.4546 21.5162L29.8552 17.8037H27.1388L26.7381 21.5162H29.4546Z" fill="#EA1717"/>
<path d="M28.9228 26.4303L29.3235 22.7178H26.6071L26.2064 26.4303H28.9228Z" fill="#EA1717"/>
<path d="M28.3916 31.361L28.7923 27.6484H26.0758L25.6751 31.361H28.3916Z" fill="#EA1717"/>
<path d="M27.8601 36.2916L28.2608 32.5791H25.5443L25.1436 36.2916H27.8601Z" fill="#EA1717"/>
<path d="M15.6374 23.453L14.739 30.6416H17.4343L18.3327 23.453H15.6374Z" fill="#EA1717"/>
<path d="M11.0676 18.6093L10.1692 25.7979H12.8644L13.7629 18.6093H11.0676Z" fill="#EA1717"/>
<path d="M12.043 29.7758L11.5803 33.5459H14.2756L14.7382 29.7758H12.043Z" fill="#EA1717"/>
<path d="M9.77525 30.6455H17.2361L17.5011 28.1898H10.0403L9.77525 30.6455Z" fill="#EA1717"/>
<path d="M10.1659 25.8135H17.7576L18.0108 23.4675H10.4568L10.1659 25.8135Z" fill="#EA1717"/>
<path d="M11.056 21.0684H18.5168L18.7819 18.6126H11.3211L11.056 21.0684Z" fill="#EA1717"/>
<path d="M13.7886 15.6176L13.3259 19.3877H16.0212L16.4838 15.6176H13.7886Z" fill="#EA1717"/>
</g>
</svg>
