<svg width="48" height="48" viewBox="0 0 48 48" fill="none" xmlns="http://www.w3.org/2000/svg">
<mask id="mask0_90_94" style="mask-type:alpha" maskUnits="userSpaceOnUse" x="2" y="2" width="44" height="44">
<circle cx="24" cy="24" r="22" fill="#C4C4C4"/>
</mask>
<g mask="url(#mask0_90_94)">
<path d="M23.9952 46.0001C36.1482 46.0001 46.0001 36.1482 46.0001 23.9952C46.0001 11.8422 36.1482 1.99023 23.9952 1.99023C11.8422 1.99023 1.99023 11.8422 1.99023 23.9952C1.99023 36.1482 11.8422 46.0001 23.9952 46.0001Z" fill="#EA1717"/>
<path d="M17.4849 39.446C18.6331 39.446 19.5715 38.5152 19.581 37.3671C19.5904 36.2189 18.6672 35.2881 17.519 35.2881C16.3708 35.2881 15.4323 36.2189 15.4229 37.3671C15.4135 38.5152 16.3366 39.446 17.4849 39.446Z" fill="white"/>
<path d="M27.5586 39.446C28.7068 39.446 29.6453 38.5152 29.6547 37.3671C29.6641 36.2189 28.7409 35.2881 27.5927 35.2881C26.4445 35.2881 25.506 36.2189 25.4966 37.3671C25.4872 38.5152 26.4104 39.446 27.5586 39.446Z" fill="white"/>
<mask id="mask1_90_94" style="mask-type:alpha" maskUnits="userSpaceOnUse" x="9" y="10" width="37" height="24">
<path d="M32.8098 10.9307H42.8292C43.1746 10.9307 43.4955 11.1088 43.678 11.4019L44.8915 13.35C45.3064 14.0161 44.8275 14.8787 44.0427 14.8787H36.8382C36.3252 14.8787 35.8954 15.2669 35.8433 15.7773L34.1168 32.7145C34.0648 33.2249 33.635 33.6131 33.122 33.6131H11.4371C10.9229 33.6131 10.4925 33.2231 10.442 32.7114L9.10866 19.2121C9.07451 18.8664 9.22223 18.5278 9.49884 18.3176L13.3841 15.3656C13.558 15.2334 13.7705 15.1618 13.989 15.1618H30.5513C31.0612 15.1618 31.4894 14.7783 31.5453 14.2716L31.8158 11.8209C31.8718 11.3142 32.3 10.9307 32.8098 10.9307Z" fill="#C4C4C4"/>
</mask>
<g mask="url(#mask1_90_94)">
<path d="M30.6164 33.6123H10.5227L9.05664 18.6494H34.9571L30.6164 33.6123Z" fill="white"/>
<path d="M34.0099 33.6127H29.4026L31.9136 10.9277H36.3289L34.0099 33.6127Z" fill="white"/>
<path d="M38.2656 14.3466C38.2462 14.6346 37.9792 14.8813 37.687 14.8813H34.3939L34.4644 10.9287H37.5743C38.095 10.9287 38.4693 11.3239 38.4347 11.8372L38.2656 14.3466Z" fill="white"/>
<path d="M33.9319 33.6123L9.04443 18.6494L10.523 33.6123H33.9319Z" fill="#FFEFEF"/>
<path d="M31.0636 18.6495L9.07054 18.6495L13.5045 15.282C13.6071 15.204 13.7298 15.1612 13.8501 15.1612L31.4454 15.1611" fill="#F4CECE"/>
<path d="M20.5674 21.5137L23.2833 21.5137V30.435H20.5674V21.5137Z" fill="#EA1717"/>
<path d="M27.1069 21.5137L29.8228 21.5137L28.8228 30.435H26.1069L27.1069 21.5137Z" fill="#EA1717"/>
<path d="M16.7426 21.5137L14.0237 21.5137L15.0248 30.435H17.7437L16.7426 21.5137Z" fill="#EA1717"/>
</g>
</g>
</svg>
