<svg width="203" height="47" viewBox="0 0 203 47" fill="none" xmlns="http://www.w3.org/2000/svg">
<rect x="31" y="36" width="5" height="11" fill="#0B56C2"/>
<rect x="165" y="36" width="5" height="11" fill="#0B56C2"/>
<path d="M0 34V4C0 1.79086 1.79087 0 4.00001 0H200.406C201.717 0 202.673 1.24082 202.34 2.50899L193.785 35.018C193.322 36.7752 191.734 38 189.916 38H4C1.79086 38 0 36.2091 0 34Z" fill="#0090EB"/>
<path d="M14.808 12.48C13.992 14.768 12.616 17.04 11.16 18.496C11.48 18.96 12.008 20.016 12.184 20.48C13.928 18.656 15.592 15.776 16.616 13.04L14.808 12.48ZM13.24 16.896V27.424H15.08V15.088L15.064 15.072L13.24 16.896ZM18.328 18.352V20.128H26.28V18.352H18.328ZM24.488 12.336C22.648 13.04 19.64 13.68 16.904 14.064C17.112 14.464 17.368 15.136 17.448 15.568C20.28 15.2 23.528 14.608 25.912 13.776L24.488 12.336ZM21.464 14.4C21.704 21.744 22.6 27.232 24.952 27.248C25.592 27.248 26.312 26.624 26.696 24.08C26.408 23.936 25.704 23.472 25.416 23.104C25.336 24.4 25.176 25.104 24.952 25.104C24.168 25.088 23.32 20.048 23.208 14.4H21.464ZM16.808 25.92C17.208 25.68 17.816 25.456 21.304 24.512C21.256 24.112 21.24 23.392 21.288 22.896L17.4 23.808L16.648 24.368L16.808 25.92ZM16.808 25.92C16.808 25.328 18.696 24.48 18.696 24.48V14.56L16.904 14.064V23.28C16.904 23.936 16.488 24.256 16.136 24.416C16.408 24.768 16.712 25.504 16.808 25.92ZM18.424 25.504V27.056H22.744V25.504H18.424ZM29.208 15.44V16.8H33.224V15.44H29.208ZM36.6 15.44V16.8H40.632V15.44H36.6ZM39.88 13.056V25.088C39.88 25.408 39.768 25.504 39.432 25.504C39.096 25.52 37.896 25.536 36.888 25.456C37.16 25.984 37.48 26.896 37.576 27.44C39.128 27.44 40.184 27.392 40.888 27.072C41.592 26.768 41.816 26.224 41.816 25.104V13.056H39.88ZM29.368 13.056V14.608H32.6V17.728H29.368V19.264H34.408V13.056H29.368ZM40.92 13.056H35.512V19.296H40.92V17.76H37.336V14.608H40.92V13.056ZM28.264 13.056V27.44H30.168V13.056H28.264ZM48.296 25.328V26.896H58.536V25.328H48.296ZM54.76 14.496V16.112H58.504V14.496H54.76ZM54.44 18.688V20.304H58.296V18.688H54.44ZM49.336 21.52V26.16H50.888V22.992H51.768V26.16H52.984V22.992H53.88V26.16H55.112V22.992H56.008V26.16H57.64V21.52H49.336ZM54.68 12.432C54.488 14.192 54.152 16.016 53.512 17.184C53.896 17.392 54.6 17.888 54.904 18.144C55.608 16.816 56.088 14.752 56.344 12.704L54.68 12.432ZM43.704 15.728V17.488H48.568V15.728H43.704ZM45.416 12.416V27.44H47.128V12.416H45.416ZM45.384 16.944C45.048 18.976 44.248 21.504 43.32 22.88C43.592 23.312 43.976 24.032 44.136 24.512C45.176 22.88 45.992 19.792 46.376 17.28L45.384 16.944ZM47.048 18.192L46.344 18.896C46.744 19.648 47.624 21.536 47.944 22.48L48.856 21.152C48.616 20.688 47.368 18.64 47.048 18.192ZM48.808 19.408V20.752H53.896V19.408H48.808ZM49.656 15.088V16.352H52.264V17.296H49.656V18.56H53.64V15.088H49.656ZM51.032 13.6V15.712H52.392V13.6H51.032ZM51.032 17.712V19.872H52.392V17.712H51.032ZM48.808 12.944V20.32H50.264V14.272H53.8V12.944H48.808ZM66.168 21.888H67.816L68.232 16.416L68.312 14.032H65.672L65.752 16.416L66.168 21.888ZM67 26.16C67.8 26.16 68.408 25.568 68.408 24.736C68.408 23.904 67.8 23.328 67 23.328C66.184 23.328 65.576 23.904 65.576 24.736C65.576 25.568 66.168 26.16 67 26.16Z" fill="white"/>
<path d="M89.1809 18.304L90.0209 14.08C91.3169 14.224 92.5649 14.632 93.5969 15.328L95.0609 12.352C93.9089 11.632 92.3489 11.152 90.6449 10.984L91.1729 8.32H88.7729L88.2449 10.96C84.1649 11.248 81.5489 13.408 81.5489 16.6C81.5489 19.504 83.9969 20.392 86.2289 21.064L85.4129 25.12C83.7569 24.952 82.1489 24.352 80.8769 23.416L79.2689 26.392C80.4929 27.304 82.5089 28.024 84.7889 28.24L84.2609 30.88H86.6609L87.1889 28.24C91.1969 27.904 93.7649 25.768 93.7649 22.576C93.7649 19.816 91.3889 18.952 89.1809 18.304ZM85.4369 16.096C85.4609 15.184 86.2289 14.44 87.5969 14.176L86.9009 17.632C86.0369 17.272 85.4369 16.84 85.4369 16.096ZM87.8369 25.048L88.4849 21.76C89.3249 22.072 89.8769 22.504 89.8769 23.2C89.8769 24.112 89.1329 24.784 87.8369 25.048ZM111.392 21.304H108.632L109.256 18.16H105.632L105.008 21.304H100.592L109.808 11.2H105.56L95.672 21.856L95.168 24.472H104.216L103.496 28H107.288L107.984 24.472H110.744L111.392 21.304ZM119.661 10.912C115.797 10.912 112.917 13.216 112.917 16.888C112.917 20.008 115.461 21.736 118.413 21.736C119.877 21.736 121.173 21.328 122.181 20.392C121.629 22.96 119.877 25.12 116.565 25.12C115.365 25.12 114.309 24.904 113.421 24.304L111.645 27.16C112.725 27.88 114.501 28.288 116.349 28.288C123.501 28.288 126.429 22.552 126.429 17.8C126.429 13.264 123.621 10.912 119.661 10.912ZM119.421 18.832C117.837 18.832 116.781 17.992 116.781 16.552C116.781 14.848 118.029 13.816 119.709 13.816C121.485 13.816 122.469 14.92 122.469 16.192C122.469 17.728 121.245 18.832 119.421 18.832ZM133.91 28.288C139.118 28.288 142.67 23.344 142.67 17.272C142.67 13.264 140.318 10.912 136.598 10.912C131.39 10.912 127.838 15.856 127.838 21.928C127.838 25.936 130.19 28.288 133.91 28.288ZM134.27 25C132.71 25 131.75 24.016 131.75 21.832C131.75 18.712 133.286 14.2 136.238 14.2C137.798 14.2 138.758 15.184 138.758 17.368C138.758 20.488 137.222 25 134.27 25Z" fill="white"/>
<path d="M155.592 21.168V24.864C155.592 26.576 156.072 27.136 158.008 27.136C158.376 27.136 159.784 27.136 160.184 27.136C161.768 27.136 162.28 26.496 162.488 24.112C161.944 24 161.128 23.696 160.728 23.392C160.664 25.152 160.568 25.44 160.008 25.44C159.672 25.44 158.568 25.44 158.296 25.44C157.688 25.44 157.592 25.376 157.592 24.832V21.168H155.592ZM151.848 12.336C151 13.952 149.464 15.84 147.336 17.264C147.768 17.568 148.392 18.24 148.68 18.688C151.032 16.96 152.696 14.864 153.928 12.752L151.848 12.336ZM151.112 18.112H159.144V20.176H151.112V18.112ZM149.192 16.416V21.888H161.176V16.416H149.192ZM156.264 13.472V13.824C155.928 14.608 155.08 15.904 154.328 16.688C154.76 16.928 155.4 17.344 155.784 17.632C156.648 16.752 157.72 15.328 158.344 14.24L157.016 13.392L156.696 13.472H156.264ZM152.088 13.472L151.144 15.024H156.84V13.472H152.088ZM154.088 17.568C153.8 21.12 153.464 24.224 147.592 25.712C148.024 26.112 148.488 26.832 148.68 27.328C155.016 25.552 155.768 21.824 156.12 17.568H154.088ZM172.088 14.752V25.088H173.96V14.752H172.088ZM170.52 20.144H175.608V20.784H170.52V20.144ZM170.52 18.416H175.608V19.04H170.52V18.416ZM168.968 17.232V21.952H177.224V17.232H168.968ZM168.104 12.912V16.016H169.864V14.32H175.992V16.016H177.832V12.912H168.104ZM169.416 15.328V16.656H176.632V15.328H169.416ZM168.296 22.624V24.048H178.024V22.624H168.296ZM164.056 13.264C164.728 14.064 165.592 15.184 165.992 15.872L167.496 14.848C167.064 14.192 166.216 13.184 165.496 12.416L164.056 13.264ZM163.672 16.176V17.712H167.016V16.176H163.672ZM166.92 23.104L165.64 23.616C166.824 26.688 168.808 27.168 172.52 27.168C174.392 27.168 176.44 27.136 178.12 27.024C178.216 26.512 178.456 25.648 178.728 25.264C176.904 25.44 174.264 25.536 172.552 25.536C169.656 25.52 167.768 25.264 166.92 23.104ZM166.28 20.032V20.32C165.928 23.12 164.92 25.136 163.336 26.208C163.704 26.464 164.328 27.12 164.584 27.488C166.28 26.224 167.496 23.824 167.96 20.32L167.16 20L166.856 20.032H166.28ZM163.976 21.776C164.104 21.632 164.568 21.52 164.952 21.52H167.016V20.032H164.664L163.976 20.4V21.776ZM163.976 21.776C163.976 21.344 165.256 20.72 165.256 20.72C166.152 19.68 167.512 17.696 168.248 16.592L167.08 16.064L166.6 16.272V16.32C166.056 17.2 164.648 19.248 164.184 19.696C163.88 20.032 163.624 20.144 163.352 20.208C163.528 20.56 163.864 21.376 163.976 21.776Z" fill="white"/>
</svg>
